<mxfile host="app.diagrams.net" agent="Mozilla/5.0 (Windows NT 10.0; Win64; x64) AppleWebKit/537.36 (KHTML, like Gecko) Chrome/131.0.0.0 Safari/537.36" version="24.8.9">
  <diagram name="Page-1" id="FP7cDt7bYiuVt9vRY-VC">
    <mxGraphModel dx="1050" dy="522" grid="0" gridSize="10" guides="1" tooltips="1" connect="1" arrows="1" fold="1" page="1" pageScale="1" pageWidth="827" pageHeight="1169" math="0" shadow="0">
      <root>
        <mxCell id="0" />
        <mxCell id="1" parent="0" />
        <mxCell id="jSjyeuIaW5rDF9rgyDze-1" value="Employee" style="rounded=0;whiteSpace=wrap;html=1;" vertex="1" parent="1">
          <mxGeometry x="31" y="114" width="120" height="38" as="geometry" />
        </mxCell>
        <mxCell id="jSjyeuIaW5rDF9rgyDze-3" value="Airline" style="rounded=0;whiteSpace=wrap;html=1;" vertex="1" parent="1">
          <mxGeometry x="350" y="112" width="120" height="38" as="geometry" />
        </mxCell>
        <mxCell id="jSjyeuIaW5rDF9rgyDze-4" value="Transaction" style="rounded=0;whiteSpace=wrap;html=1;" vertex="1" parent="1">
          <mxGeometry x="630" y="112" width="120" height="38" as="geometry" />
        </mxCell>
        <mxCell id="jSjyeuIaW5rDF9rgyDze-5" value="Aircraft" style="rounded=0;whiteSpace=wrap;html=1;" vertex="1" parent="1">
          <mxGeometry x="338" y="273" width="120" height="38" as="geometry" />
        </mxCell>
        <mxCell id="jSjyeuIaW5rDF9rgyDze-6" value="Route" style="rounded=0;whiteSpace=wrap;html=1;" vertex="1" parent="1">
          <mxGeometry x="601" y="278" width="120" height="38" as="geometry" />
        </mxCell>
        <mxCell id="jSjyeuIaW5rDF9rgyDze-7" value="Crew" style="rounded=0;whiteSpace=wrap;html=1;" vertex="1" parent="1">
          <mxGeometry x="334" y="440" width="120" height="38" as="geometry" />
        </mxCell>
        <mxCell id="jSjyeuIaW5rDF9rgyDze-8" value="" style="rounded=0;whiteSpace=wrap;html=1;fillColor=none;" vertex="1" parent="1">
          <mxGeometry x="331" y="437" width="127" height="44" as="geometry" />
        </mxCell>
        <mxCell id="jSjyeuIaW5rDF9rgyDze-9" value="Address" style="ellipse;whiteSpace=wrap;html=1;" vertex="1" parent="1">
          <mxGeometry x="20" y="30" width="50" height="36" as="geometry" />
        </mxCell>
        <mxCell id="jSjyeuIaW5rDF9rgyDze-10" value="Name" style="ellipse;whiteSpace=wrap;html=1;" vertex="1" parent="1">
          <mxGeometry x="75" y="30" width="50" height="36" as="geometry" />
        </mxCell>
        <mxCell id="jSjyeuIaW5rDF9rgyDze-11" value="Gender" style="ellipse;whiteSpace=wrap;html=1;" vertex="1" parent="1">
          <mxGeometry x="143" y="16" width="50" height="36" as="geometry" />
        </mxCell>
        <mxCell id="jSjyeuIaW5rDF9rgyDze-31" style="edgeStyle=orthogonalEdgeStyle;rounded=0;orthogonalLoop=1;jettySize=auto;html=1;exitX=0.5;exitY=1;exitDx=0;exitDy=0;entryX=1;entryY=0.5;entryDx=0;entryDy=0;endArrow=none;endFill=0;" edge="1" parent="1" source="jSjyeuIaW5rDF9rgyDze-12" target="jSjyeuIaW5rDF9rgyDze-1">
          <mxGeometry relative="1" as="geometry">
            <Array as="points">
              <mxPoint x="224" y="96" />
              <mxPoint x="151" y="96" />
            </Array>
          </mxGeometry>
        </mxCell>
        <mxCell id="jSjyeuIaW5rDF9rgyDze-12" value="&lt;u&gt;ID&lt;/u&gt;" style="ellipse;whiteSpace=wrap;html=1;" vertex="1" parent="1">
          <mxGeometry x="199" y="11" width="50" height="36" as="geometry" />
        </mxCell>
        <mxCell id="jSjyeuIaW5rDF9rgyDze-13" value="Position" style="ellipse;whiteSpace=wrap;html=1;" vertex="1" parent="1">
          <mxGeometry x="8" y="172" width="50" height="36" as="geometry" />
        </mxCell>
        <mxCell id="jSjyeuIaW5rDF9rgyDze-24" style="edgeStyle=orthogonalEdgeStyle;rounded=0;orthogonalLoop=1;jettySize=auto;html=1;exitX=0.5;exitY=0;exitDx=0;exitDy=0;entryX=0.5;entryY=1;entryDx=0;entryDy=0;endArrow=none;endFill=0;" edge="1" parent="1" source="jSjyeuIaW5rDF9rgyDze-14" target="jSjyeuIaW5rDF9rgyDze-1">
          <mxGeometry relative="1" as="geometry" />
        </mxCell>
        <mxCell id="jSjyeuIaW5rDF9rgyDze-14" value="BOD" style="ellipse;whiteSpace=wrap;html=1;" vertex="1" parent="1">
          <mxGeometry x="73" y="183" width="50" height="36" as="geometry" />
        </mxCell>
        <mxCell id="jSjyeuIaW5rDF9rgyDze-15" value="Address" style="ellipse;whiteSpace=wrap;html=1;" vertex="1" parent="1">
          <mxGeometry x="158" y="167" width="50" height="36" as="geometry" />
        </mxCell>
        <mxCell id="jSjyeuIaW5rDF9rgyDze-21" style="edgeStyle=orthogonalEdgeStyle;rounded=0;orthogonalLoop=1;jettySize=auto;html=1;exitX=0.5;exitY=0;exitDx=0;exitDy=0;entryX=0;entryY=1;entryDx=0;entryDy=0;endArrow=none;endFill=0;" edge="1" parent="1" source="jSjyeuIaW5rDF9rgyDze-16" target="jSjyeuIaW5rDF9rgyDze-14">
          <mxGeometry relative="1" as="geometry" />
        </mxCell>
        <mxCell id="jSjyeuIaW5rDF9rgyDze-16" value="Year" style="ellipse;whiteSpace=wrap;html=1;" vertex="1" parent="1">
          <mxGeometry x="61" y="246" width="40" height="27" as="geometry" />
        </mxCell>
        <mxCell id="jSjyeuIaW5rDF9rgyDze-22" style="edgeStyle=orthogonalEdgeStyle;rounded=0;orthogonalLoop=1;jettySize=auto;html=1;exitX=0.5;exitY=0;exitDx=0;exitDy=0;entryX=0.5;entryY=1;entryDx=0;entryDy=0;endArrow=none;endFill=0;" edge="1" parent="1" source="jSjyeuIaW5rDF9rgyDze-19" target="jSjyeuIaW5rDF9rgyDze-14">
          <mxGeometry relative="1" as="geometry" />
        </mxCell>
        <mxCell id="jSjyeuIaW5rDF9rgyDze-19" value="Month" style="ellipse;whiteSpace=wrap;html=1;" vertex="1" parent="1">
          <mxGeometry x="111" y="238" width="40" height="27" as="geometry" />
        </mxCell>
        <mxCell id="jSjyeuIaW5rDF9rgyDze-23" style="edgeStyle=orthogonalEdgeStyle;rounded=0;orthogonalLoop=1;jettySize=auto;html=1;exitX=0;exitY=0;exitDx=0;exitDy=0;entryX=1;entryY=0.5;entryDx=0;entryDy=0;endArrow=none;endFill=0;" edge="1" parent="1" source="jSjyeuIaW5rDF9rgyDze-20" target="jSjyeuIaW5rDF9rgyDze-14">
          <mxGeometry relative="1" as="geometry" />
        </mxCell>
        <mxCell id="jSjyeuIaW5rDF9rgyDze-20" value="Day" style="ellipse;whiteSpace=wrap;html=1;" vertex="1" parent="1">
          <mxGeometry x="163" y="219" width="40" height="27" as="geometry" />
        </mxCell>
        <mxCell id="jSjyeuIaW5rDF9rgyDze-25" style="edgeStyle=orthogonalEdgeStyle;rounded=0;orthogonalLoop=1;jettySize=auto;html=1;exitX=0;exitY=0;exitDx=0;exitDy=0;entryX=0.838;entryY=1.011;entryDx=0;entryDy=0;entryPerimeter=0;endArrow=none;endFill=0;" edge="1" parent="1" source="jSjyeuIaW5rDF9rgyDze-15" target="jSjyeuIaW5rDF9rgyDze-1">
          <mxGeometry relative="1" as="geometry" />
        </mxCell>
        <mxCell id="jSjyeuIaW5rDF9rgyDze-26" style="edgeStyle=orthogonalEdgeStyle;rounded=0;orthogonalLoop=1;jettySize=auto;html=1;exitX=0.5;exitY=0;exitDx=0;exitDy=0;entryX=0.138;entryY=1.053;entryDx=0;entryDy=0;entryPerimeter=0;endArrow=none;endFill=0;" edge="1" parent="1" source="jSjyeuIaW5rDF9rgyDze-13" target="jSjyeuIaW5rDF9rgyDze-1">
          <mxGeometry relative="1" as="geometry" />
        </mxCell>
        <mxCell id="jSjyeuIaW5rDF9rgyDze-27" style="edgeStyle=orthogonalEdgeStyle;rounded=0;orthogonalLoop=1;jettySize=auto;html=1;exitX=0.5;exitY=1;exitDx=0;exitDy=0;entryX=0.118;entryY=0.084;entryDx=0;entryDy=0;entryPerimeter=0;endArrow=none;endFill=0;" edge="1" parent="1" source="jSjyeuIaW5rDF9rgyDze-9" target="jSjyeuIaW5rDF9rgyDze-1">
          <mxGeometry relative="1" as="geometry" />
        </mxCell>
        <mxCell id="jSjyeuIaW5rDF9rgyDze-28" style="edgeStyle=orthogonalEdgeStyle;rounded=0;orthogonalLoop=1;jettySize=auto;html=1;exitX=0.5;exitY=1;exitDx=0;exitDy=0;entryX=0.575;entryY=0;entryDx=0;entryDy=0;entryPerimeter=0;endArrow=none;endFill=0;" edge="1" parent="1" source="jSjyeuIaW5rDF9rgyDze-10" target="jSjyeuIaW5rDF9rgyDze-1">
          <mxGeometry relative="1" as="geometry" />
        </mxCell>
        <mxCell id="jSjyeuIaW5rDF9rgyDze-30" style="edgeStyle=orthogonalEdgeStyle;rounded=0;orthogonalLoop=1;jettySize=auto;html=1;exitX=0;exitY=1;exitDx=0;exitDy=0;entryX=0.825;entryY=0.063;entryDx=0;entryDy=0;entryPerimeter=0;endArrow=none;endFill=0;" edge="1" parent="1" source="jSjyeuIaW5rDF9rgyDze-11" target="jSjyeuIaW5rDF9rgyDze-1">
          <mxGeometry relative="1" as="geometry" />
        </mxCell>
        <mxCell id="jSjyeuIaW5rDF9rgyDze-33" value="Name" style="ellipse;whiteSpace=wrap;html=1;" vertex="1" parent="1">
          <mxGeometry x="342" y="15" width="50" height="36" as="geometry" />
        </mxCell>
        <mxCell id="jSjyeuIaW5rDF9rgyDze-39" value="" style="edgeStyle=orthogonalEdgeStyle;rounded=0;orthogonalLoop=1;jettySize=auto;html=1;endArrow=none;endFill=0;" edge="1" parent="1" source="jSjyeuIaW5rDF9rgyDze-34" target="jSjyeuIaW5rDF9rgyDze-3">
          <mxGeometry relative="1" as="geometry" />
        </mxCell>
        <mxCell id="jSjyeuIaW5rDF9rgyDze-34" value="&lt;u&gt;ID&lt;/u&gt;" style="ellipse;whiteSpace=wrap;html=1;" vertex="1" parent="1">
          <mxGeometry x="404" y="15" width="50" height="36" as="geometry" />
        </mxCell>
        <mxCell id="jSjyeuIaW5rDF9rgyDze-41" style="edgeStyle=orthogonalEdgeStyle;rounded=0;orthogonalLoop=1;jettySize=auto;html=1;exitX=0.5;exitY=1;exitDx=0;exitDy=0;entryX=0.25;entryY=0;entryDx=0;entryDy=0;endArrow=none;endFill=0;" edge="1" parent="1" source="jSjyeuIaW5rDF9rgyDze-35" target="jSjyeuIaW5rDF9rgyDze-3">
          <mxGeometry relative="1" as="geometry" />
        </mxCell>
        <mxCell id="jSjyeuIaW5rDF9rgyDze-35" value="Address" style="ellipse;whiteSpace=wrap;html=1;" vertex="1" parent="1">
          <mxGeometry x="280" y="18" width="50" height="36" as="geometry" />
        </mxCell>
        <mxCell id="jSjyeuIaW5rDF9rgyDze-36" value="Contact&lt;div&gt;person&lt;/div&gt;" style="ellipse;whiteSpace=wrap;html=1;" vertex="1" parent="1">
          <mxGeometry x="457" y="36" width="53" height="38" as="geometry" />
        </mxCell>
        <mxCell id="jSjyeuIaW5rDF9rgyDze-38" style="edgeStyle=orthogonalEdgeStyle;rounded=0;orthogonalLoop=1;jettySize=auto;html=1;exitX=0.5;exitY=1;exitDx=0;exitDy=0;entryX=0.143;entryY=-0.021;entryDx=0;entryDy=0;entryPerimeter=0;endArrow=none;endFill=0;" edge="1" parent="1" source="jSjyeuIaW5rDF9rgyDze-33" target="jSjyeuIaW5rDF9rgyDze-3">
          <mxGeometry relative="1" as="geometry" />
        </mxCell>
        <mxCell id="jSjyeuIaW5rDF9rgyDze-42" value="Phone" style="ellipse;whiteSpace=wrap;html=1;" vertex="1" parent="1">
          <mxGeometry x="530" y="74" width="50" height="36" as="geometry" />
        </mxCell>
        <mxCell id="jSjyeuIaW5rDF9rgyDze-44" style="edgeStyle=orthogonalEdgeStyle;rounded=0;orthogonalLoop=1;jettySize=auto;html=1;exitX=0;exitY=0.5;exitDx=0;exitDy=0;entryX=1;entryY=0.25;entryDx=0;entryDy=0;endArrow=none;endFill=0;" edge="1" parent="1" source="jSjyeuIaW5rDF9rgyDze-43" target="jSjyeuIaW5rDF9rgyDze-3">
          <mxGeometry relative="1" as="geometry" />
        </mxCell>
        <mxCell id="jSjyeuIaW5rDF9rgyDze-43" value="" style="ellipse;whiteSpace=wrap;html=1;fillColor=none;" vertex="1" parent="1">
          <mxGeometry x="525" y="70" width="60" height="44" as="geometry" />
        </mxCell>
        <mxCell id="jSjyeuIaW5rDF9rgyDze-46" style="edgeStyle=orthogonalEdgeStyle;rounded=0;orthogonalLoop=1;jettySize=auto;html=1;exitX=0.5;exitY=1;exitDx=0;exitDy=0;entryX=0.837;entryY=0.021;entryDx=0;entryDy=0;entryPerimeter=0;endArrow=none;endFill=0;" edge="1" parent="1" source="jSjyeuIaW5rDF9rgyDze-36" target="jSjyeuIaW5rDF9rgyDze-3">
          <mxGeometry relative="1" as="geometry" />
        </mxCell>
        <mxCell id="jSjyeuIaW5rDF9rgyDze-54" style="edgeStyle=orthogonalEdgeStyle;rounded=0;orthogonalLoop=1;jettySize=auto;html=1;exitX=0;exitY=1;exitDx=0;exitDy=0;entryX=1;entryY=0;entryDx=0;entryDy=0;endArrow=none;endFill=0;" edge="1" parent="1" source="jSjyeuIaW5rDF9rgyDze-47" target="jSjyeuIaW5rDF9rgyDze-4">
          <mxGeometry relative="1" as="geometry" />
        </mxCell>
        <mxCell id="jSjyeuIaW5rDF9rgyDze-47" value="&lt;u&gt;ID&lt;/u&gt;" style="ellipse;whiteSpace=wrap;html=1;" vertex="1" parent="1">
          <mxGeometry x="736" y="44" width="50" height="36" as="geometry" />
        </mxCell>
        <mxCell id="jSjyeuIaW5rDF9rgyDze-53" style="edgeStyle=orthogonalEdgeStyle;rounded=0;orthogonalLoop=1;jettySize=auto;html=1;exitX=0.5;exitY=1;exitDx=0;exitDy=0;entryX=0.75;entryY=0;entryDx=0;entryDy=0;endArrow=none;endFill=0;" edge="1" parent="1" source="jSjyeuIaW5rDF9rgyDze-49" target="jSjyeuIaW5rDF9rgyDze-4">
          <mxGeometry relative="1" as="geometry" />
        </mxCell>
        <mxCell id="jSjyeuIaW5rDF9rgyDze-49" value="Description" style="ellipse;whiteSpace=wrap;html=1;" vertex="1" parent="1">
          <mxGeometry x="660" y="19" width="68" height="39" as="geometry" />
        </mxCell>
        <mxCell id="jSjyeuIaW5rDF9rgyDze-55" style="edgeStyle=orthogonalEdgeStyle;rounded=0;orthogonalLoop=1;jettySize=auto;html=1;exitX=0;exitY=1;exitDx=0;exitDy=0;entryX=1;entryY=0.5;entryDx=0;entryDy=0;endArrow=none;endFill=0;" edge="1" parent="1" source="jSjyeuIaW5rDF9rgyDze-50" target="jSjyeuIaW5rDF9rgyDze-4">
          <mxGeometry relative="1" as="geometry" />
        </mxCell>
        <mxCell id="jSjyeuIaW5rDF9rgyDze-50" value="Date" style="ellipse;whiteSpace=wrap;html=1;" vertex="1" parent="1">
          <mxGeometry x="777" y="101" width="50" height="36" as="geometry" />
        </mxCell>
        <mxCell id="jSjyeuIaW5rDF9rgyDze-56" style="edgeStyle=orthogonalEdgeStyle;rounded=0;orthogonalLoop=1;jettySize=auto;html=1;exitX=0;exitY=0.5;exitDx=0;exitDy=0;entryX=0.75;entryY=1;entryDx=0;entryDy=0;endArrow=none;endFill=0;" edge="1" parent="1" source="jSjyeuIaW5rDF9rgyDze-51" target="jSjyeuIaW5rDF9rgyDze-4">
          <mxGeometry relative="1" as="geometry" />
        </mxCell>
        <mxCell id="jSjyeuIaW5rDF9rgyDze-51" value="Payment Money" style="ellipse;whiteSpace=wrap;html=1;" vertex="1" parent="1">
          <mxGeometry x="752" y="158" width="64" height="42" as="geometry" />
        </mxCell>
        <mxCell id="jSjyeuIaW5rDF9rgyDze-60" style="edgeStyle=orthogonalEdgeStyle;rounded=0;orthogonalLoop=1;jettySize=auto;html=1;exitX=1;exitY=1;exitDx=0;exitDy=0;entryX=0;entryY=0.5;entryDx=0;entryDy=0;endArrow=none;endFill=0;" edge="1" parent="1" source="jSjyeuIaW5rDF9rgyDze-57" target="jSjyeuIaW5rDF9rgyDze-5">
          <mxGeometry relative="1" as="geometry" />
        </mxCell>
        <mxCell id="jSjyeuIaW5rDF9rgyDze-57" value="&lt;u&gt;ID&lt;/u&gt;" style="ellipse;whiteSpace=wrap;html=1;" vertex="1" parent="1">
          <mxGeometry x="255" y="246" width="50" height="36" as="geometry" />
        </mxCell>
        <mxCell id="jSjyeuIaW5rDF9rgyDze-61" style="edgeStyle=orthogonalEdgeStyle;rounded=0;orthogonalLoop=1;jettySize=auto;html=1;exitX=1;exitY=0.5;exitDx=0;exitDy=0;entryX=0;entryY=0.75;entryDx=0;entryDy=0;endArrow=none;endFill=0;" edge="1" parent="1" source="jSjyeuIaW5rDF9rgyDze-58" target="jSjyeuIaW5rDF9rgyDze-5">
          <mxGeometry relative="1" as="geometry" />
        </mxCell>
        <mxCell id="jSjyeuIaW5rDF9rgyDze-58" value="Model" style="ellipse;whiteSpace=wrap;html=1;" vertex="1" parent="1">
          <mxGeometry x="219" y="296" width="50" height="36" as="geometry" />
        </mxCell>
        <mxCell id="jSjyeuIaW5rDF9rgyDze-62" style="edgeStyle=orthogonalEdgeStyle;rounded=0;orthogonalLoop=1;jettySize=auto;html=1;exitX=1;exitY=0;exitDx=0;exitDy=0;endArrow=none;endFill=0;" edge="1" parent="1" source="jSjyeuIaW5rDF9rgyDze-59">
          <mxGeometry relative="1" as="geometry">
            <mxPoint x="346" y="311.6000061035156" as="targetPoint" />
          </mxGeometry>
        </mxCell>
        <mxCell id="jSjyeuIaW5rDF9rgyDze-59" value="Capacity" style="ellipse;whiteSpace=wrap;html=1;" vertex="1" parent="1">
          <mxGeometry x="269" y="332" width="50" height="36" as="geometry" />
        </mxCell>
        <mxCell id="jSjyeuIaW5rDF9rgyDze-63" value="Hostess1" style="ellipse;whiteSpace=wrap;html=1;" vertex="1" parent="1">
          <mxGeometry x="307" y="509" width="50" height="36" as="geometry" />
        </mxCell>
        <mxCell id="jSjyeuIaW5rDF9rgyDze-65" value="" style="edgeStyle=orthogonalEdgeStyle;rounded=0;orthogonalLoop=1;jettySize=auto;html=1;endArrow=none;endFill=0;" edge="1" parent="1" source="jSjyeuIaW5rDF9rgyDze-64" target="jSjyeuIaW5rDF9rgyDze-8">
          <mxGeometry relative="1" as="geometry" />
        </mxCell>
        <mxCell id="jSjyeuIaW5rDF9rgyDze-64" value="Hostess1" style="ellipse;whiteSpace=wrap;html=1;" vertex="1" parent="1">
          <mxGeometry x="369.5" y="509" width="50" height="36" as="geometry" />
        </mxCell>
        <mxCell id="jSjyeuIaW5rDF9rgyDze-67" style="edgeStyle=orthogonalEdgeStyle;rounded=0;orthogonalLoop=1;jettySize=auto;html=1;exitX=0.5;exitY=0;exitDx=0;exitDy=0;entryX=0.175;entryY=1.059;entryDx=0;entryDy=0;entryPerimeter=0;endArrow=none;endFill=0;" edge="1" parent="1" source="jSjyeuIaW5rDF9rgyDze-63" target="jSjyeuIaW5rDF9rgyDze-8">
          <mxGeometry relative="1" as="geometry" />
        </mxCell>
        <mxCell id="jSjyeuIaW5rDF9rgyDze-68" value="Major&lt;div&gt;Pilot&lt;/div&gt;" style="ellipse;whiteSpace=wrap;html=1;" vertex="1" parent="1">
          <mxGeometry x="438" y="509" width="50" height="36" as="geometry" />
        </mxCell>
        <mxCell id="jSjyeuIaW5rDF9rgyDze-71" style="edgeStyle=orthogonalEdgeStyle;rounded=0;orthogonalLoop=1;jettySize=auto;html=1;exitX=0;exitY=0.5;exitDx=0;exitDy=0;entryX=1;entryY=0.25;entryDx=0;entryDy=0;endArrow=none;endFill=0;" edge="1" parent="1" source="jSjyeuIaW5rDF9rgyDze-69" target="jSjyeuIaW5rDF9rgyDze-8">
          <mxGeometry relative="1" as="geometry" />
        </mxCell>
        <mxCell id="jSjyeuIaW5rDF9rgyDze-69" value="Assistant&lt;div&gt;Pilot&lt;/div&gt;" style="ellipse;whiteSpace=wrap;html=1;" vertex="1" parent="1">
          <mxGeometry x="488" y="459" width="66" height="39" as="geometry" />
        </mxCell>
        <mxCell id="jSjyeuIaW5rDF9rgyDze-70" style="edgeStyle=orthogonalEdgeStyle;rounded=0;orthogonalLoop=1;jettySize=auto;html=1;exitX=0.5;exitY=0;exitDx=0;exitDy=0;entryX=0.83;entryY=1.059;entryDx=0;entryDy=0;entryPerimeter=0;endArrow=none;endFill=0;" edge="1" parent="1" source="jSjyeuIaW5rDF9rgyDze-68" target="jSjyeuIaW5rDF9rgyDze-8">
          <mxGeometry relative="1" as="geometry" />
        </mxCell>
        <mxCell id="jSjyeuIaW5rDF9rgyDze-77" value="" style="edgeStyle=orthogonalEdgeStyle;rounded=0;orthogonalLoop=1;jettySize=auto;html=1;endArrow=none;endFill=0;" edge="1" parent="1" source="jSjyeuIaW5rDF9rgyDze-72" target="jSjyeuIaW5rDF9rgyDze-6">
          <mxGeometry relative="1" as="geometry" />
        </mxCell>
        <mxCell id="jSjyeuIaW5rDF9rgyDze-72" value="&lt;u&gt;ID&lt;/u&gt;" style="ellipse;whiteSpace=wrap;html=1;" vertex="1" parent="1">
          <mxGeometry x="623" y="351" width="50" height="36" as="geometry" />
        </mxCell>
        <mxCell id="jSjyeuIaW5rDF9rgyDze-79" style="edgeStyle=orthogonalEdgeStyle;rounded=0;orthogonalLoop=1;jettySize=auto;html=1;exitX=0.5;exitY=0;exitDx=0;exitDy=0;entryX=0.75;entryY=1;entryDx=0;entryDy=0;" edge="1" parent="1" source="jSjyeuIaW5rDF9rgyDze-73" target="jSjyeuIaW5rDF9rgyDze-6">
          <mxGeometry relative="1" as="geometry" />
        </mxCell>
        <mxCell id="jSjyeuIaW5rDF9rgyDze-73" value="Origin" style="ellipse;whiteSpace=wrap;html=1;" vertex="1" parent="1">
          <mxGeometry x="671" y="372" width="50" height="36" as="geometry" />
        </mxCell>
        <mxCell id="jSjyeuIaW5rDF9rgyDze-80" style="edgeStyle=orthogonalEdgeStyle;rounded=0;orthogonalLoop=1;jettySize=auto;html=1;exitX=0;exitY=0.5;exitDx=0;exitDy=0;entryX=1;entryY=1;entryDx=0;entryDy=0;" edge="1" parent="1" source="jSjyeuIaW5rDF9rgyDze-74" target="jSjyeuIaW5rDF9rgyDze-6">
          <mxGeometry relative="1" as="geometry" />
        </mxCell>
        <mxCell id="jSjyeuIaW5rDF9rgyDze-74" value="Destination" style="ellipse;whiteSpace=wrap;html=1;" vertex="1" parent="1">
          <mxGeometry x="754" y="329" width="67" height="37" as="geometry" />
        </mxCell>
        <mxCell id="jSjyeuIaW5rDF9rgyDze-76" value="" style="edgeStyle=orthogonalEdgeStyle;rounded=0;orthogonalLoop=1;jettySize=auto;html=1;" edge="1" parent="1" source="jSjyeuIaW5rDF9rgyDze-75" target="jSjyeuIaW5rDF9rgyDze-6">
          <mxGeometry relative="1" as="geometry" />
        </mxCell>
        <mxCell id="jSjyeuIaW5rDF9rgyDze-75" value="Classification" style="ellipse;whiteSpace=wrap;html=1;" vertex="1" parent="1">
          <mxGeometry x="748" y="277" width="79" height="40" as="geometry" />
        </mxCell>
        <mxCell id="jSjyeuIaW5rDF9rgyDze-82" style="edgeStyle=orthogonalEdgeStyle;rounded=0;orthogonalLoop=1;jettySize=auto;html=1;exitX=1;exitY=0.5;exitDx=0;exitDy=0;entryX=0;entryY=0.75;entryDx=0;entryDy=0;endArrow=ERoneToMany;endFill=0;" edge="1" parent="1" source="jSjyeuIaW5rDF9rgyDze-81" target="jSjyeuIaW5rDF9rgyDze-4">
          <mxGeometry relative="1" as="geometry" />
        </mxCell>
        <mxCell id="jSjyeuIaW5rDF9rgyDze-83" style="edgeStyle=orthogonalEdgeStyle;rounded=0;orthogonalLoop=1;jettySize=auto;html=1;exitX=0;exitY=0.5;exitDx=0;exitDy=0;entryX=1;entryY=0.5;entryDx=0;entryDy=0;endArrow=ERone;endFill=0;" edge="1" parent="1" source="jSjyeuIaW5rDF9rgyDze-81" target="jSjyeuIaW5rDF9rgyDze-3">
          <mxGeometry relative="1" as="geometry" />
        </mxCell>
        <mxCell id="jSjyeuIaW5rDF9rgyDze-81" value="Record" style="rhombus;whiteSpace=wrap;html=1;" vertex="1" parent="1">
          <mxGeometry x="527" y="144" width="58" height="48" as="geometry" />
        </mxCell>
        <mxCell id="jSjyeuIaW5rDF9rgyDze-86" style="edgeStyle=orthogonalEdgeStyle;rounded=0;orthogonalLoop=1;jettySize=auto;html=1;exitX=0;exitY=0.5;exitDx=0;exitDy=0;endArrow=ERoneToMany;endFill=0;" edge="1" parent="1" source="jSjyeuIaW5rDF9rgyDze-84">
          <mxGeometry relative="1" as="geometry">
            <mxPoint x="152.39999389648438" y="133" as="targetPoint" />
          </mxGeometry>
        </mxCell>
        <mxCell id="jSjyeuIaW5rDF9rgyDze-88" value="" style="edgeStyle=orthogonalEdgeStyle;rounded=0;orthogonalLoop=1;jettySize=auto;html=1;endArrow=ERone;endFill=0;" edge="1" parent="1" source="jSjyeuIaW5rDF9rgyDze-84" target="jSjyeuIaW5rDF9rgyDze-3">
          <mxGeometry relative="1" as="geometry" />
        </mxCell>
        <mxCell id="jSjyeuIaW5rDF9rgyDze-84" value="Work" style="rhombus;whiteSpace=wrap;html=1;" vertex="1" parent="1">
          <mxGeometry x="222" y="99" width="58" height="48" as="geometry" />
        </mxCell>
        <mxCell id="jSjyeuIaW5rDF9rgyDze-90" value="" style="edgeStyle=orthogonalEdgeStyle;rounded=0;orthogonalLoop=1;jettySize=auto;html=1;endArrow=ERone;endFill=0;" edge="1" parent="1" source="jSjyeuIaW5rDF9rgyDze-89" target="jSjyeuIaW5rDF9rgyDze-3">
          <mxGeometry relative="1" as="geometry" />
        </mxCell>
        <mxCell id="jSjyeuIaW5rDF9rgyDze-91" value="" style="edgeStyle=orthogonalEdgeStyle;rounded=0;orthogonalLoop=1;jettySize=auto;html=1;endArrow=ERoneToMany;endFill=0;" edge="1" parent="1" source="jSjyeuIaW5rDF9rgyDze-89" target="jSjyeuIaW5rDF9rgyDze-5">
          <mxGeometry relative="1" as="geometry" />
        </mxCell>
        <mxCell id="jSjyeuIaW5rDF9rgyDze-89" value="Own" style="rhombus;whiteSpace=wrap;html=1;" vertex="1" parent="1">
          <mxGeometry x="356" y="190" width="58" height="48" as="geometry" />
        </mxCell>
        <mxCell id="jSjyeuIaW5rDF9rgyDze-94" style="edgeStyle=orthogonalEdgeStyle;rounded=0;orthogonalLoop=1;jettySize=auto;html=1;exitX=0.5;exitY=0;exitDx=0;exitDy=0;endArrow=circle;endFill=0;" edge="1" parent="1" source="jSjyeuIaW5rDF9rgyDze-92">
          <mxGeometry relative="1" as="geometry">
            <mxPoint x="394" y="313.2000427246094" as="targetPoint" />
          </mxGeometry>
        </mxCell>
        <mxCell id="jSjyeuIaW5rDF9rgyDze-95" style="edgeStyle=orthogonalEdgeStyle;rounded=0;orthogonalLoop=1;jettySize=auto;html=1;exitX=0.5;exitY=1;exitDx=0;exitDy=0;entryX=0.5;entryY=0;entryDx=0;entryDy=0;endArrow=ERone;endFill=0;" edge="1" parent="1" source="jSjyeuIaW5rDF9rgyDze-92" target="jSjyeuIaW5rDF9rgyDze-8">
          <mxGeometry relative="1" as="geometry" />
        </mxCell>
        <mxCell id="jSjyeuIaW5rDF9rgyDze-92" value="Has" style="rhombus;whiteSpace=wrap;html=1;" vertex="1" parent="1">
          <mxGeometry x="365" y="349" width="58" height="48" as="geometry" />
        </mxCell>
        <mxCell id="jSjyeuIaW5rDF9rgyDze-97" style="edgeStyle=orthogonalEdgeStyle;rounded=0;orthogonalLoop=1;jettySize=auto;html=1;exitX=1;exitY=0.5;exitDx=0;exitDy=0;entryX=0;entryY=0.5;entryDx=0;entryDy=0;endArrow=ERoneToMany;endFill=0;" edge="1" parent="1" source="jSjyeuIaW5rDF9rgyDze-96" target="jSjyeuIaW5rDF9rgyDze-6">
          <mxGeometry relative="1" as="geometry" />
        </mxCell>
        <mxCell id="jSjyeuIaW5rDF9rgyDze-98" style="edgeStyle=orthogonalEdgeStyle;rounded=0;orthogonalLoop=1;jettySize=auto;html=1;exitX=0;exitY=0.5;exitDx=0;exitDy=0;endArrow=ERzeroToMany;endFill=0;" edge="1" parent="1" source="jSjyeuIaW5rDF9rgyDze-96">
          <mxGeometry relative="1" as="geometry">
            <mxPoint x="461.20001220703125" y="297" as="targetPoint" />
          </mxGeometry>
        </mxCell>
        <mxCell id="jSjyeuIaW5rDF9rgyDze-96" value="Assign" style="rhombus;whiteSpace=wrap;html=1;" vertex="1" parent="1">
          <mxGeometry x="501" y="273" width="58" height="48" as="geometry" />
        </mxCell>
        <mxCell id="jSjyeuIaW5rDF9rgyDze-101" style="edgeStyle=orthogonalEdgeStyle;rounded=0;orthogonalLoop=1;jettySize=auto;html=1;exitX=0.5;exitY=1;exitDx=0;exitDy=0;entryX=1;entryY=0;entryDx=0;entryDy=0;endArrow=none;endFill=0;" edge="1" parent="1" source="jSjyeuIaW5rDF9rgyDze-99" target="jSjyeuIaW5rDF9rgyDze-96">
          <mxGeometry relative="1" as="geometry" />
        </mxCell>
        <mxCell id="jSjyeuIaW5rDF9rgyDze-99" value="#Passanger" style="ellipse;whiteSpace=wrap;html=1;" vertex="1" parent="1">
          <mxGeometry x="540" y="227" width="72" height="29" as="geometry" />
        </mxCell>
        <mxCell id="jSjyeuIaW5rDF9rgyDze-102" style="edgeStyle=orthogonalEdgeStyle;rounded=0;orthogonalLoop=1;jettySize=auto;html=1;exitX=0.5;exitY=1;exitDx=0;exitDy=0;endArrow=none;endFill=0;" edge="1" parent="1" source="jSjyeuIaW5rDF9rgyDze-100" target="jSjyeuIaW5rDF9rgyDze-96">
          <mxGeometry relative="1" as="geometry" />
        </mxCell>
        <mxCell id="jSjyeuIaW5rDF9rgyDze-100" value="Price Per&lt;div&gt;Passanger&lt;/div&gt;" style="ellipse;whiteSpace=wrap;html=1;" vertex="1" parent="1">
          <mxGeometry x="453" y="207" width="82" height="31" as="geometry" />
        </mxCell>
        <mxCell id="jSjyeuIaW5rDF9rgyDze-105" style="edgeStyle=orthogonalEdgeStyle;rounded=0;orthogonalLoop=1;jettySize=auto;html=1;exitX=0.5;exitY=0;exitDx=0;exitDy=0;entryX=0;entryY=1;entryDx=0;entryDy=0;endArrow=none;endFill=0;" edge="1" parent="1" source="jSjyeuIaW5rDF9rgyDze-103" target="jSjyeuIaW5rDF9rgyDze-96">
          <mxGeometry relative="1" as="geometry" />
        </mxCell>
        <mxCell id="jSjyeuIaW5rDF9rgyDze-103" value="Depature&lt;div&gt;Date Time&lt;/div&gt;" style="ellipse;whiteSpace=wrap;html=1;" vertex="1" parent="1">
          <mxGeometry x="423" y="341" width="75" height="31" as="geometry" />
        </mxCell>
        <mxCell id="jSjyeuIaW5rDF9rgyDze-106" style="edgeStyle=orthogonalEdgeStyle;rounded=0;orthogonalLoop=1;jettySize=auto;html=1;exitX=0.5;exitY=0;exitDx=0;exitDy=0;entryX=0.5;entryY=1;entryDx=0;entryDy=0;endArrow=none;endFill=0;" edge="1" parent="1" source="jSjyeuIaW5rDF9rgyDze-104" target="jSjyeuIaW5rDF9rgyDze-96">
          <mxGeometry relative="1" as="geometry" />
        </mxCell>
        <mxCell id="jSjyeuIaW5rDF9rgyDze-104" value="Arrival&lt;div&gt;Date Time&lt;/div&gt;" style="ellipse;whiteSpace=wrap;html=1;" vertex="1" parent="1">
          <mxGeometry x="479" y="368" width="72" height="29" as="geometry" />
        </mxCell>
        <mxCell id="jSjyeuIaW5rDF9rgyDze-108" style="edgeStyle=orthogonalEdgeStyle;rounded=0;orthogonalLoop=1;jettySize=auto;html=1;exitX=0.5;exitY=0;exitDx=0;exitDy=0;entryX=1;entryY=1;entryDx=0;entryDy=0;endArrow=none;endFill=0;" edge="1" parent="1" source="jSjyeuIaW5rDF9rgyDze-107" target="jSjyeuIaW5rDF9rgyDze-96">
          <mxGeometry relative="1" as="geometry" />
        </mxCell>
        <mxCell id="jSjyeuIaW5rDF9rgyDze-107" value="Time Spent" style="ellipse;whiteSpace=wrap;html=1;dashed=1;" vertex="1" parent="1">
          <mxGeometry x="542" y="343" width="72" height="29" as="geometry" />
        </mxCell>
      </root>
    </mxGraphModel>
  </diagram>
</mxfile>
